<?xml version="1.0" encoding="UTF-8" ?>
<!DOCTYPE svg PUBLIC "-//W3C//DTD SVG 1.1//EN" "http://www.w3.org/Graphics/SVG/1.1/DTD/svg11.dtd">
<svg width="100pt" height="101pt" viewBox="0 0 100 101" version="1.1" xmlns="http://www.w3.org/2000/svg">
<g id="#ffffffff">
</g>
<g id="#fe6d73ff">
<path fill="#fe6d73" opacity="1.00" d=" M 29.96 13.81 C 37.11 11.20 43.93 7.80 50.99 5.01 C 60.41 1.72 71.88 9.78 70.85 19.97 C 71.50 29.82 60.52 37.96 51.25 34.74 C 44.96 33.06 41.68 26.99 37.45 22.61 C 35.04 19.60 31.84 17.20 29.96 13.81 Z" />
</g>
<g id="#ffe61cff">
<path fill="#ffe61c" opacity="1.00" d=" M 16.46 19.38 C 21.37 17.70 27.00 18.63 31.17 21.71 C 34.65 23.81 36.00 27.86 37.36 31.46 C 39.02 38.31 34.71 45.53 28.70 48.71 C 24.52 50.53 20.28 52.20 16.11 54.03 C 13.64 55.04 11.27 56.48 8.55 56.70 C 7.93 49.44 7.11 42.20 6.49 34.95 C 5.98 28.29 10.42 21.93 16.46 19.38 Z" />
</g>
<g id="#ef5efeff">
<path fill="#ef5efe" opacity="1.00" d=" M 76.85 22.54 C 77.03 22.45 77.41 22.27 77.59 22.18 C 82.26 26.97 86.43 32.22 90.96 37.13 C 93.39 39.80 94.99 43.28 94.80 46.95 C 95.30 55.01 88.13 62.74 80.00 62.55 C 72.43 62.72 65.09 56.60 64.58 48.92 C 64.09 45.19 65.39 41.51 67.39 38.42 C 70.70 33.22 73.58 27.76 76.85 22.54 Z" />
</g>
<g id="#61f348ff">
<path fill="#61f348" opacity="1.00" d=" M 13.69 60.74 C 18.79 54.33 29.11 53.43 35.29 58.76 C 40.30 62.53 41.17 69.22 41.44 75.04 C 41.49 79.98 42.60 84.84 42.67 89.78 C 37.04 89.04 31.52 87.57 25.93 86.56 C 22.03 85.86 17.93 84.88 14.99 82.03 C 8.71 76.98 8.61 66.65 13.69 60.74 Z" />
</g>
<g id="#57b6fcff">
<path fill="#57b6fc" opacity="1.00" d=" M 46.45 83.44 C 43.38 75.10 49.41 64.96 58.16 63.55 C 63.64 62.64 68.85 64.95 74.15 65.88 C 77.78 66.93 81.68 67.06 85.14 68.66 C 81.40 74.49 78.07 80.55 74.48 86.47 C 72.17 90.09 68.58 93.41 64.13 93.89 C 56.71 95.41 48.71 90.67 46.45 83.44 Z" />
</g>
</svg>
