<?xml version="1.0" encoding="UTF-8" ?>
<!DOCTYPE svg PUBLIC "-//W3C//DTD SVG 1.1//EN" "http://www.w3.org/Graphics/SVG/1.1/DTD/svg11.dtd">
<svg width="200pt" height="140pt" viewBox="0 0 1883 443" version="1.1" xmlns="http://www.w3.org/2000/svg">
<g id="#ffffffff">
</g>
<g id="#000000ff">
<path fill="#000000" opacity="1.00" d=" M 890.88 13.33 C 965.30 3.64 1040.54 0.83 1115.53 3.41 C 1115.98 21.95 1116.32 40.51 1115.88 59.05 C 1115.63 74.03 1113.49 88.88 1112.25 103.80 C 1105.26 186.66 1109.62 269.87 1107.67 352.90 C 1099.64 348.33 1090.37 345.06 1084.42 337.64 C 1030.94 251.07 979.62 163.12 924.76 77.39 C 911.27 57.30 899.33 36.05 890.88 13.33 Z" />
<path fill="#000000" opacity="1.00" d=" M 1.74 10.05 C 65.52 9.79 129.30 8.69 193.08 9.48 C 219.85 9.09 247.05 16.43 268.99 32.01 C 283.76 42.45 295.67 57.15 301.83 74.24 C 313.33 99.39 315.85 128.05 311.14 155.15 C 307.54 175.95 300.09 196.11 289.27 214.25 C 268.95 241.83 235.72 260.80 201.02 260.32 C 155.76 262.06 110.46 260.61 65.18 261.37 C 65.02 320.61 64.94 379.86 64.73 439.11 C 43.71 438.82 22.69 438.88 1.67 439.01 C 1.97 382.02 2.11 325.03 2.18 268.03 C 2.25 182.04 2.37 96.04 1.74 10.05 Z" />
<path fill="#000000" opacity="1.00" d=" M 352.10 9.01 C 373.07 9.16 394.05 9.28 415.03 9.36 C 414.82 140.89 414.33 272.43 415.02 403.96 C 415.15 415.93 415.23 427.90 415.42 439.87 C 394.33 439.42 373.23 439.03 352.13 439.43 C 352.45 295.96 352.39 152.48 352.10 9.01 Z" />
<path fill="#000000" opacity="1.00" d=" M 1163.06 10.32 C 1263.01 7.96 1363.00 9.85 1462.97 9.75 C 1461.62 14.70 1460.40 19.69 1459.10 24.66 C 1385.22 54.61 1313.62 89.88 1239.63 119.54 C 1307.72 145.00 1371.54 180.13 1437.71 209.96 C 1433.71 214.51 1429.57 218.93 1425.61 223.52 C 1424.66 224.53 1423.79 225.67 1422.52 226.25 C 1362.25 255.58 1299.03 278.35 1238.97 308.13 C 1299.17 339.17 1358.35 372.10 1418.32 403.56 C 1431.14 410.56 1444.97 416.14 1456.09 425.86 C 1460.18 429.31 1464.04 433.04 1467.66 436.99 C 1415.12 439.12 1362.53 438.94 1309.96 438.82 C 1261.15 438.67 1212.35 438.34 1163.55 438.89 C 1163.16 330.60 1164.38 222.30 1163.91 114.01 C 1163.76 79.45 1163.32 44.88 1163.06 10.32 Z" />
<path fill="#000000" opacity="1.00" d=" M 1514.30 9.98 C 1583.86 8.81 1653.44 9.21 1723.00 9.49 C 1743.73 9.43 1764.59 13.70 1783.31 22.73 C 1798.14 29.88 1811.65 40.18 1821.47 53.49 C 1830.72 65.77 1835.85 80.59 1839.23 95.44 C 1844.90 121.29 1843.81 148.79 1834.89 173.79 C 1827.20 195.63 1812.69 215.19 1793.22 227.89 C 1808.83 240.50 1824.51 254.88 1831.49 274.23 C 1838.08 311.83 1830.50 350.57 1838.94 387.96 C 1842.36 405.22 1848.93 421.64 1853.06 438.72 C 1828.64 439.00 1804.23 438.76 1779.81 439.01 C 1779.37 399.18 1774.64 359.60 1772.19 319.89 C 1771.56 311.77 1772.32 303.39 1769.59 295.57 C 1763.03 275.41 1743.24 260.02 1721.94 259.42 C 1675.45 259.23 1628.95 258.70 1582.47 259.60 C 1580.87 260.97 1579.29 262.35 1577.75 263.75 C 1577.16 320.37 1578.60 377.01 1576.57 433.60 C 1570.48 438.31 1562.61 439.91 1555.07 439.90 C 1541.48 440.24 1527.91 436.83 1514.35 438.86 C 1514.37 295.90 1514.69 152.94 1514.30 9.98 Z" />
<path fill="#000000" opacity="1.00" d=" M 638.58 11.81 C 681.37 8.45 724.36 22.47 759.58 46.38 C 786.26 66.89 807.42 94.48 820.56 125.45 C 830.35 148.57 835.47 173.78 834.59 198.91 C 832.72 226.25 836.88 253.77 832.93 281.00 C 831.57 292.43 827.84 303.36 824.11 314.18 C 812.71 345.80 792.82 374.32 767.02 395.88 C 747.35 412.28 724.10 424.64 699.13 430.58 C 675.51 432.74 651.73 434.79 628.01 433.11 C 601.96 431.63 575.61 424.98 553.82 410.15 C 524.93 392.85 502.43 366.09 487.95 335.88 C 471.71 302.33 464.07 265.08 462.70 227.97 C 462.55 223.69 462.19 219.39 462.75 215.13 C 465.54 188.80 469.27 162.36 477.47 137.10 C 484.17 116.21 494.37 96.30 508.63 79.54 C 531.33 48.03 566.62 27.20 603.94 17.91 C 615.37 15.29 626.86 12.66 638.58 11.81 Z" />
<path fill="#000000" opacity="1.00" d=" M 884.37 83.50 C 896.87 94.61 906.66 108.37 915.59 122.42 C 932.88 150.26 949.08 178.76 966.33 206.63 C 992.85 249.74 1020.44 292.19 1046.76 335.43 C 1053.79 346.95 1060.47 358.69 1068.24 369.74 C 1082.84 391.20 1098.75 412.93 1104.48 438.76 C 1030.40 439.85 956.30 438.90 882.22 439.46 C 883.96 320.81 879.88 202.11 884.37 83.50 Z" />
</g>
</svg>
